<svg xmlns="http://www.w3.org/2000/svg" xmlns:xlink="http://www.w3.org/1999/xlink" id="visual" width="900" height="600" version="1.1" viewBox="0 0 900 600"><rect width="900" height="600" x="0" y="0" fill="#0b0f1f"/><path fill="#1a1f34" d="M613 600L595 500L603 400L607 300L616 200L661 100L601 0L900 0L900 100L900 200L900 300L900 400L900 500L900 600Z"/><path fill="#713b63" d="M660 600L645 500L696 400L681 300L736 200L691 100L650 0L900 0L900 100L900 200L900 300L900 400L900 500L900 600Z"/><path fill="#ce5e5f" d="M760 600L772 500L770 400L748 300L743 200L775 100L783 0L900 0L900 100L900 200L900 300L900 400L900 500L900 600Z"/><path fill="#f2aa3c" d="M872 600L821 500L836 400L793 300L813 200L870 100L795 0L900 0L900 100L900 200L900 300L900 400L900 500L900 600Z"/></svg>